<svg xmlns="http://www.w3.org/2000/svg" xmlns:xlink="http://www.w3.org/1999/xlink" id="&#x421;&#x43B;&#x43E;&#x439;_1" x="0px" y="0px" viewBox="0 0 290.2 263.9" style="enable-background:new 0 0 290.2 263.9;" xml:space="preserve"><style type="text/css">	.st0{fill:#FFFFFF;}</style><image style="display:none;overflow:visible;" width="1500" height="1000" xlink:href="stock-vector-initial-letter-nx-logo-design-vector-template-creative-abstract-xn-letter-logo-design-2131579173.jpg" transform="matrix(1 0 0 1 -297.876 -384.6808)"></image><g>	<polygon class="st0" points="238.6,231.2 282.2,264 282.2,37.7 238.6,86.3  "></polygon>	<polygon class="st0" points="50.8,33.6 7.2,0.4 7.2,226.7 50.8,178.1  "></polygon>	<polygon class="st0" points="290.2,0 232.9,0 142,103 111.7,80 68.2,46.8 68.2,46.9 68.2,100.9 68.2,103.4 112.4,136.6 0,263.9   56,263.9 146.4,162 221.2,218.2 221.2,217.1 221.2,163.4 222,164 222,163.8 175.9,128.8  "></polygon></g></svg>